<svg xmlns="http://www.w3.org/2000/svg" xmlns:xlink="http://www.w3.org/1999/xlink" width="256" zoomAndPan="magnify" viewBox="0 0 192 191.999996" height="256" preserveAspectRatio="xMidYMid meet" version="1.0"><defs><clipPath id="3eb1d7312c"><path d="M 11.351562 80.5 C 16.9375 87.21875 16.949219 105.039062 11.394531 111.78125 C 4.414062 120.257812 0.230469 131.105469 0.230469 142.894531 C 0.230469 170.125 22.289062 192 49.21875 192 C 61.070312 192 71.921875 187.832031 80.394531 180.867188 C 87.152344 175.3125 105.082031 175.3125 111.839844 180.867188 C 120.3125 187.832031 131.160156 192 143.015625 192 C 169.949219 192 192 170.125 192 142.894531 C 192 131.015625 187.6875 120.097656 180.585938 111.59375 C 175.007812 104.910156 175.007812 87.316406 180.578125 80.628906 C 187.683594 72.097656 192 61.117188 192 49.105469 C 192 22.109375 169.949219 0 143.015625 0 C 131.261719 0 120.539062 4.078125 112.113281 10.898438 C 105.25 16.453125 86.636719 16.390625 79.777344 10.839844 C 71.394531 4.050781 60.703125 0 48.984375 0 C 22.050781 0 0 22.109375 0 49.105469 C 0 61.054688 4.273438 71.988281 11.351562 80.5 Z M 11.351562 80.5 " clip-rule="nonzero"/></clipPath><clipPath id="0dfcc84631"><path d="M 26 16 L 166.136719 16 L 166.136719 176 L 26 176 Z M 26 16 " clip-rule="nonzero"/></clipPath></defs><g clip-path="url(#3eb1d7312c)"><rect x="-19.2" width="230.4" fill="#000000" y="-19.2" height="230.399995" fill-opacity="1"/></g><g clip-path="url(#0dfcc84631)"><path fill="#c1ff72" d="M 77.265625 95.996094 L 29.132812 34.222656 C 25.894531 30.070312 26.054688 24.34375 29.519531 20.378906 C 32.984375 16.414062 38.640625 15.488281 43.1875 18.136719 L 160.691406 86.597656 C 164.128906 88.597656 166.09375 92.015625 166.09375 95.996094 C 166.09375 99.976562 164.128906 103.390625 160.691406 105.394531 L 43.1875 173.851562 C 38.636719 176.503906 32.984375 175.578125 29.519531 171.613281 C 26.054688 167.648438 25.894531 161.921875 29.128906 157.769531 Z M 77.265625 95.996094 " fill-opacity="1" fill-rule="evenodd"/></g></svg>